<svg xmlns="http://www.w3.org/2000/svg" viewBox="0 0 24 24" fill="none" stroke="currentColor" stroke-width="2">
    <path d="M21.198 2.433a2.242 2.242 0 0 0-1.022.215l-8.609 3.33c-2.068.8-4.133 1.598-5.724 2.21a405.15 405.15 0 0 1-2.849 1.09c-.42.147-.99.332-1.473.901-.728.968.193 1.798.919 2.286 1.61.516 3.275 1.009 4.654 1.472.846 1.467 1.767 2.27 2.66 2.86 1.144.532 2.124.64 2.912.46.94-.208 1.674-.618 1.788-.68.346-.196.52-.36.6-.43.11-.1.118-.103.214.145.06.105.233.41.488.862.62 1.104 1.647 2.57 3.19 2.57.793 0 1.496-.27 2.052-.766.59-.523.93-1.283.93-2.09 0-.63-.263-1.193-.423-1.543a6.375 6.375 0 0 1-.22-.565c-.05-.153-.024-.19-.025-.19l.694-.78a16.36 16.36 0 0 0 1.713-2.123c1.373-1.965 2.623-3.944 3.797-5.938.098-.17.078-.246-.15-.417C21.898 2.643 21.67 2.435 21.198 2.433z"></path>
</svg>
